<svg width="424" height="71" viewBox="0 0 424 71" fill="none" xmlns="http://www.w3.org/2000/svg">
<path d="M0.636364 0.181816H21.7727L35.4091 28.5455H35.9545L49.5909 0.181816H70.7273L45.0909 48.0455V70H26.2727V48.0455L0.636364 0.181816ZM107.29 47.0909V17.6364H126.108V70H108.244V60.0455H107.699C106.563 63.3864 104.574 66 101.733 67.8864C98.892 69.75 95.517 70.6818 91.608 70.6818C87.9489 70.6818 84.7443 69.8409 81.9943 68.1591C79.267 66.4773 77.142 64.1591 75.6193 61.2045C74.1193 58.25 73.358 54.8636 73.3352 51.0455V17.6364H92.1534V47.0909C92.1761 49.6818 92.8352 51.7159 94.1307 53.1932C95.4489 54.6705 97.2898 55.4091 99.6534 55.4091C101.222 55.4091 102.574 55.0795 103.71 54.4205C104.869 53.7386 105.756 52.7841 106.369 51.5568C107.006 50.3068 107.313 48.8182 107.29 47.0909ZM135.679 70V17.6364H153.543V27.5909H154.088C155.179 24.3182 157.043 21.7273 159.679 19.8182C162.315 17.9091 165.452 16.9545 169.088 16.9545C172.77 16.9545 175.94 17.9318 178.599 19.8864C181.259 21.8182 182.861 24.3864 183.406 27.5909H183.952C184.838 24.3864 186.724 21.8182 189.611 19.8864C192.497 17.9318 195.884 16.9545 199.77 16.9545C204.793 16.9545 208.861 18.5682 211.974 21.7955C215.111 25.0227 216.679 29.3182 216.679 34.6818V70H197.861V39.4545C197.861 37.1591 197.281 35.3636 196.122 34.0682C194.963 32.75 193.406 32.0909 191.452 32.0909C189.52 32.0909 187.986 32.75 186.849 34.0682C185.736 35.3636 185.179 37.1591 185.179 39.4545V70H167.179V39.4545C167.179 37.1591 166.599 35.3636 165.44 34.0682C164.281 32.75 162.724 32.0909 160.77 32.0909C159.474 32.0909 158.361 32.3864 157.429 32.9773C156.497 33.5682 155.77 34.4205 155.247 35.5341C154.747 36.625 154.497 37.9318 154.497 39.4545V70H135.679Z" fill="#1E1E1E"/>
<path d="M211.574 0.181816H232.71L246.347 28.5455H246.892L260.528 0.181816H281.665L256.028 48.0455V70H237.21V48.0455L211.574 0.181816ZM290.426 70.8182C287.085 70.8182 284.131 70.2727 281.562 69.1818C279.017 68.0682 277.017 66.3864 275.562 64.1364C274.108 61.8864 273.381 59.0227 273.381 55.5455C273.381 52.6818 273.869 50.2386 274.847 48.2159C275.824 46.1705 277.188 44.5 278.938 43.2045C280.688 41.9091 282.722 40.9205 285.04 40.2386C287.381 39.5568 289.903 39.1136 292.608 38.9091C295.54 38.6818 297.892 38.4091 299.665 38.0909C301.46 37.75 302.756 37.2841 303.551 36.6932C304.347 36.0795 304.744 35.2727 304.744 34.2727V34.1364C304.744 32.7727 304.222 31.7273 303.176 31C302.131 30.2727 300.79 29.9091 299.153 29.9091C297.358 29.9091 295.892 30.3068 294.756 31.1023C293.642 31.875 292.972 33.0682 292.744 34.6818H275.426C275.653 31.5 276.665 28.5682 278.46 25.8864C280.278 23.1818 282.926 21.0227 286.403 19.4091C289.881 17.7727 294.222 16.9545 299.426 16.9545C303.176 16.9545 306.54 17.3977 309.517 18.2841C312.494 19.1477 315.028 20.3636 317.119 21.9318C319.21 23.4773 320.801 25.2955 321.892 27.3864C323.006 29.4545 323.562 31.7045 323.562 34.1364V70H305.972V62.6364H305.562C304.517 64.5909 303.244 66.1705 301.744 67.375C300.267 68.5795 298.574 69.4545 296.665 70C294.778 70.5455 292.699 70.8182 290.426 70.8182ZM296.562 58.9545C297.994 58.9545 299.335 58.6591 300.585 58.0682C301.858 57.4773 302.892 56.625 303.688 55.5114C304.483 54.3977 304.881 53.0455 304.881 51.4545V47.0909C304.381 47.2955 303.847 47.4886 303.278 47.6705C302.733 47.8523 302.142 48.0227 301.506 48.1818C300.892 48.3409 300.233 48.4886 299.528 48.625C298.847 48.7614 298.131 48.8864 297.381 49C295.926 49.2273 294.733 49.6023 293.801 50.125C292.892 50.625 292.21 51.25 291.756 52C291.324 52.7273 291.108 53.5455 291.108 54.4545C291.108 55.9091 291.619 57.0227 292.642 57.7955C293.665 58.5682 294.972 58.9545 296.562 58.9545ZM332.554 70V17.6364H350.827V27.5909H351.372C352.327 23.9091 353.838 21.2159 355.906 19.5114C357.997 17.8068 360.44 16.9545 363.236 16.9545C364.054 16.9545 364.861 17.0227 365.656 17.1591C366.474 17.2727 367.259 17.4432 368.009 17.6705V33.7273C367.077 33.4091 365.929 33.1705 364.565 33.0114C363.202 32.8523 362.031 32.7727 361.054 32.7727C359.213 32.7727 357.554 33.1932 356.077 34.0341C354.622 34.8523 353.474 36.0114 352.634 37.5114C351.793 38.9886 351.372 40.7273 351.372 42.7273V70H332.554ZM390.134 70.6818C386.406 70.6818 382.974 69.7045 379.838 67.75C376.724 65.7955 374.224 62.8295 372.338 58.8523C370.474 54.875 369.543 49.8636 369.543 43.8182C369.543 37.5 370.52 32.3636 372.474 28.4091C374.452 24.4545 376.997 21.5568 380.111 19.7159C383.247 17.875 386.543 16.9545 389.997 16.9545C392.588 16.9545 394.861 17.4091 396.815 18.3182C398.77 19.2045 400.406 20.3977 401.724 21.8977C403.043 23.375 404.043 25 404.724 26.7727H404.997V0.181816H423.815V70H405.134V61.4091H404.724C403.997 63.1818 402.952 64.7727 401.588 66.1818C400.247 67.5682 398.611 68.6705 396.679 69.4886C394.77 70.2841 392.588 70.6818 390.134 70.6818ZM397.088 56.2273C398.815 56.2273 400.293 55.7273 401.52 54.7273C402.77 53.7045 403.724 52.2727 404.384 50.4318C405.065 48.5682 405.406 46.3636 405.406 43.8182C405.406 41.2273 405.065 39.0114 404.384 37.1705C403.724 35.3068 402.77 33.8864 401.52 32.9091C400.293 31.9091 398.815 31.4091 397.088 31.4091C395.361 31.4091 393.884 31.9091 392.656 32.9091C391.452 33.8864 390.52 35.3068 389.861 37.1705C389.224 39.0114 388.906 41.2273 388.906 43.8182C388.906 46.4091 389.224 48.6364 389.861 50.5C390.52 52.3409 391.452 53.7614 392.656 54.7614C393.884 55.7386 395.361 56.2273 397.088 56.2273Z" fill="#FF6969"/>
</svg>
